{
    "asset" : {
        "generator" : "Khronos glTF Blender I/O v1.7.33",
        "version" : "2.0"
    },
    "scene" : 0,
    "scenes" : [
        {
            "name" : "colt",
            "nodes" : [
                0,
                3
            ]
        }
    ],
    "nodes" : [
        {
            "mesh" : 0,
            "name" : "mag"
        },
        {
            "mesh" : 1,
            "name" : "slide",
            "translation" : [
                0,
                -0.4985713064670563,
                0
            ]
        },
        {
            "mesh" : 2,
            "name" : "trigger",
            "translation" : [
                0,
                -0.4985713064670563,
                0
            ]
        },
        {
            "children" : [
                1,
                2
            ],
            "mesh" : 3,
            "name" : "pistol"
        }
    ],
    "materials" : [
        {
            "doubleSided" : true,
            "name" : "pistol-material",
            "normalTexture" : {
                "index" : 0,
                "scale" : 0.1400168091058731
            },
            "pbrMetallicRoughness" : {
                "baseColorTexture" : {
                    "index" : 1
                },
                "metallicFactor" : 0,
                "roughnessFactor" : 0.690034806728363
            }
        }
    ],
    "meshes" : [
        {
            "name" : "mag-mesh",
            "primitives" : [
                {
                    "attributes" : {
                        "POSITION" : 0,
                        "NORMAL" : 1,
                        "TANGENT" : 2,
                        "TEXCOORD_0" : 3
                    },
                    "indices" : 4,
                    "material" : 0
                }
            ]
        },
        {
            "name" : "slide-mesh",
            "primitives" : [
                {
                    "attributes" : {
                        "POSITION" : 5,
                        "NORMAL" : 6,
                        "TANGENT" : 7,
                        "TEXCOORD_0" : 8
                    },
                    "indices" : 9,
                    "material" : 0
                }
            ]
        },
        {
            "name" : "trigger-mesh",
            "primitives" : [
                {
                    "attributes" : {
                        "POSITION" : 10,
                        "NORMAL" : 11,
                        "TANGENT" : 12,
                        "TEXCOORD_0" : 13
                    },
                    "indices" : 14,
                    "material" : 0
                }
            ]
        },
        {
            "name" : "pistol-mesh",
            "primitives" : [
                {
                    "attributes" : {
                        "POSITION" : 15,
                        "NORMAL" : 16,
                        "TANGENT" : 17,
                        "TEXCOORD_0" : 18
                    },
                    "indices" : 19,
                    "material" : 0
                }
            ]
        }
    ],
    "textures" : [
        {
            "sampler" : 0,
            "source" : 0
        },
        {
            "sampler" : 0,
            "source" : 1
        }
    ],
    "images" : [
        {
            "mimeType" : "image/png",
            "name" : "handgun_N",
            "uri" : "handgun_N.png"
        },
        {
            "mimeType" : "image/png",
            "name" : "handgun_C",
            "uri" : "handgun_C.png"
        }
    ],
    "accessors" : [
        {
            "bufferView" : 0,
            "componentType" : 5126,
            "count" : 62,
            "max" : [
                0.07410751283168793,
                -0.10374018549919128,
                -0.3095793128013611
            ],
            "min" : [
                -0.074107326567173,
                -1.1095823049545288,
                -0.9229892492294312
            ],
            "type" : "VEC3"
        },
        {
            "bufferView" : 1,
            "componentType" : 5126,
            "count" : 62,
            "type" : "VEC3"
        },
        {
            "bufferView" : 2,
            "componentType" : 5126,
            "count" : 62,
            "type" : "VEC4"
        },
        {
            "bufferView" : 3,
            "componentType" : 5126,
            "count" : 62,
            "type" : "VEC2"
        },
        {
            "bufferView" : 4,
            "componentType" : 5123,
            "count" : 168,
            "type" : "SCALAR"
        },
        {
            "bufferView" : 5,
            "componentType" : 5126,
            "count" : 5011,
            "max" : [
                0.10153111815452576,
                0.6452512741088867,
                0.8516454696655273
            ],
            "min" : [
                -0.10153113305568695,
                0.2790606915950775,
                -0.764493465423584
            ],
            "type" : "VEC3"
        },
        {
            "bufferView" : 6,
            "componentType" : 5126,
            "count" : 5011,
            "type" : "VEC3"
        },
        {
            "bufferView" : 7,
            "componentType" : 5126,
            "count" : 5011,
            "type" : "VEC4"
        },
        {
            "bufferView" : 8,
            "componentType" : 5126,
            "count" : 5011,
            "type" : "VEC2"
        },
        {
            "bufferView" : 9,
            "componentType" : 5123,
            "count" : 22440,
            "type" : "SCALAR"
        },
        {
            "bufferView" : 10,
            "componentType" : 5126,
            "count" : 136,
            "max" : [
                0.016168663278222084,
                0.26074984669685364,
                -0.12015362828969955
            ],
            "min" : [
                -0.014872939325869083,
                0.042057767510414124,
                -0.2805807590484619
            ],
            "type" : "VEC3"
        },
        {
            "bufferView" : 11,
            "componentType" : 5126,
            "count" : 136,
            "type" : "VEC3"
        },
        {
            "bufferView" : 12,
            "componentType" : 5126,
            "count" : 136,
            "type" : "VEC4"
        },
        {
            "bufferView" : 13,
            "componentType" : 5126,
            "count" : 136,
            "type" : "VEC2"
        },
        {
            "bufferView" : 14,
            "componentType" : 5123,
            "count" : 456,
            "type" : "SCALAR"
        },
        {
            "bufferView" : 15,
            "componentType" : 5126,
            "count" : 11894,
            "max" : [
                0.12610836327075958,
                0.06817880272865295,
                0.874184787273407
            ],
            "min" : [
                -0.12390199303627014,
                -1.0224571228027344,
                -0.9760246276855469
            ],
            "type" : "VEC3"
        },
        {
            "bufferView" : 16,
            "componentType" : 5126,
            "count" : 11894,
            "type" : "VEC3"
        },
        {
            "bufferView" : 17,
            "componentType" : 5126,
            "count" : 11894,
            "type" : "VEC4"
        },
        {
            "bufferView" : 18,
            "componentType" : 5126,
            "count" : 11894,
            "type" : "VEC2"
        },
        {
            "bufferView" : 19,
            "componentType" : 5123,
            "count" : 59160,
            "type" : "SCALAR"
        }
    ],
    "bufferViews" : [
        {
            "buffer" : 0,
            "byteLength" : 744,
            "byteOffset" : 0
        },
        {
            "buffer" : 0,
            "byteLength" : 744,
            "byteOffset" : 744
        },
        {
            "buffer" : 0,
            "byteLength" : 992,
            "byteOffset" : 1488
        },
        {
            "buffer" : 0,
            "byteLength" : 496,
            "byteOffset" : 2480
        },
        {
            "buffer" : 0,
            "byteLength" : 336,
            "byteOffset" : 2976
        },
        {
            "buffer" : 0,
            "byteLength" : 60132,
            "byteOffset" : 3312
        },
        {
            "buffer" : 0,
            "byteLength" : 60132,
            "byteOffset" : 63444
        },
        {
            "buffer" : 0,
            "byteLength" : 80176,
            "byteOffset" : 123576
        },
        {
            "buffer" : 0,
            "byteLength" : 40088,
            "byteOffset" : 203752
        },
        {
            "buffer" : 0,
            "byteLength" : 44880,
            "byteOffset" : 243840
        },
        {
            "buffer" : 0,
            "byteLength" : 1632,
            "byteOffset" : 288720
        },
        {
            "buffer" : 0,
            "byteLength" : 1632,
            "byteOffset" : 290352
        },
        {
            "buffer" : 0,
            "byteLength" : 2176,
            "byteOffset" : 291984
        },
        {
            "buffer" : 0,
            "byteLength" : 1088,
            "byteOffset" : 294160
        },
        {
            "buffer" : 0,
            "byteLength" : 912,
            "byteOffset" : 295248
        },
        {
            "buffer" : 0,
            "byteLength" : 142728,
            "byteOffset" : 296160
        },
        {
            "buffer" : 0,
            "byteLength" : 142728,
            "byteOffset" : 438888
        },
        {
            "buffer" : 0,
            "byteLength" : 190304,
            "byteOffset" : 581616
        },
        {
            "buffer" : 0,
            "byteLength" : 95152,
            "byteOffset" : 771920
        },
        {
            "buffer" : 0,
            "byteLength" : 118320,
            "byteOffset" : 867072
        }
    ],
    "samplers" : [
        {
            "magFilter" : 9729,
            "minFilter" : 9987
        }
    ],
    "buffers" : [
        {
            "byteLength" : 985392,
            "uri" : "colt.bin"
        }
    ]
}
