{
    "asset" : {
        "generator" : "Khronos glTF Blender I/O v1.7.33",
        "version" : "2.0"
    },
    "scene" : 0,
    "scenes" : [
        {
            "name" : "backpack",
            "nodes" : [
                0
            ]
        }
    ],
    "nodes" : [
        {
            "mesh" : 0,
            "name" : "backpack-node",
            "rotation" : [
                0.7071068286895752,
                0,
                0,
                0.7071067094802856
            ]
        }
    ],
    "materials" : [
        {
            "doubleSided" : true,
            "name" : "backpack-material",
            "normalTexture" : {
                "index" : 0
            },
            "pbrMetallicRoughness" : {
                "baseColorTexture" : {
                    "index" : 1
                },
                "metallicRoughnessTexture" : {
                    "index" : 2
                },
                "roughnessFactor" : 0.5
            }
        }
    ],
    "meshes" : [
        {
            "name" : "backpack-mesh",
            "primitives" : [
                {
                    "attributes" : {
                        "POSITION" : 0,
                        "NORMAL" : 1,
                        "TANGENT" : 2,
                        "TEXCOORD_0" : 3
                    },
                    "indices" : 4,
                    "material" : 0
                }
            ]
        }
    ],
    "textures" : [
        {
            "sampler" : 0,
            "source" : 0
        },
        {
            "sampler" : 0,
            "source" : 1
        },
        {
            "sampler" : 0,
            "source" : 2
        }
    ],
    "images" : [
        {
            "mimeType" : "image/png",
            "name" : "normal.png.002",
            "uri" : "normal.png"
        },
        {
            "mimeType" : "image/jpeg",
            "name" : "diffuse.jpg.002",
            "uri" : "diffuse.jpg"
        },
        {
            "mimeType" : "image/jpeg",
            "name" : "specular.jpg.002",
            "uri" : "specular.jpg"
        }
    ],
    "accessors" : [
        {
            "bufferView" : 0,
            "componentType" : 5126,
            "count" : 63937,
            "max" : [
                0.15595600008964539,
                0.06785000115633011,
                0.14929500222206116
            ],
            "min" : [
                -0.1643490046262741,
                -0.2295989990234375,
                -0.2473759949207306
            ],
            "type" : "VEC3"
        },
        {
            "bufferView" : 1,
            "componentType" : 5126,
            "count" : 63937,
            "type" : "VEC3"
        },
        {
            "bufferView" : 2,
            "componentType" : 5126,
            "count" : 63937,
            "type" : "VEC4"
        },
        {
            "bufferView" : 3,
            "componentType" : 5126,
            "count" : 63937,
            "type" : "VEC2"
        },
        {
            "bufferView" : 4,
            "componentType" : 5123,
            "count" : 203721,
            "type" : "SCALAR"
        }
    ],
    "bufferViews" : [
        {
            "buffer" : 0,
            "byteLength" : 767244,
            "byteOffset" : 0
        },
        {
            "buffer" : 0,
            "byteLength" : 767244,
            "byteOffset" : 767244
        },
        {
            "buffer" : 0,
            "byteLength" : 1022992,
            "byteOffset" : 1534488
        },
        {
            "buffer" : 0,
            "byteLength" : 511496,
            "byteOffset" : 2557480
        },
        {
            "buffer" : 0,
            "byteLength" : 407442,
            "byteOffset" : 3068976
        }
    ],
    "samplers" : [
        {
            "magFilter" : 9729,
            "minFilter" : 9987
        }
    ],
    "buffers" : [
        {
            "byteLength" : 3476420,
            "uri" : "backpack.bin"
        }
    ]
}
