{
	"asset":{
		"generator":"Khronos glTF Blender I/O v4.0.44",
		"version":"2.0"
	},
	"extensionsUsed":[
		"KHR_materials_specular",
		"KHR_materials_ior"
	],
	"scene":0,
	"scenes":[
		{
			"name":"cerberus",
			"nodes":[
				0
			]
		}
	],
	"nodes":[
		{
			"mesh":0,
			"name":"cerberus",
			"scale":[
				0.009999999776482582,
				0.009999999776482582,
				0.009999999776482582
			],
			"translation":[
				0,
				0,
				-0.9372016191482544
			]
		}
	],
	"materials":[
		{
			"doubleSided":true,
			"extensions":{
				"KHR_materials_specular":{
					"specularFactor":0
				},
				"KHR_materials_ior":{
					"ior":1.4500000476837158
				}
			},
			"name":"cerberus-material",
			"normalTexture":{
				"index":0
			},
			"occlusionTexture":{
				"index":1
			},
			"pbrMetallicRoughness":{
				"baseColorTexture":{
					"index":2
				},
				"metallicRoughnessTexture":{
					"index":1
				}
			}
		}
	],
	"meshes":[
		{
			"name":"cerberus-mesh",
			"primitives":[
				{
					"attributes":{
						"POSITION":0,
						"NORMAL":1,
						"TEXCOORD_0":2,
						"TANGENT":3
					},
					"indices":4,
					"material":0
				}
			]
		}
	],
	"textures":[
		{
			"sampler":0,
			"source":0
		},
		{
			"sampler":0,
			"source":1
		},
		{
			"sampler":0,
			"source":2
		}
	],
	"images":[
		{
			"mimeType":"image/png",
			"name":"normal",
			"uri":"normal.png"
		},
		{
			"mimeType":"image/png",
			"name":"occlusion-roughness-metallic",
			"uri":"occlusion-roughness-metallic.png"
		},
		{
			"mimeType":"image/png",
			"name":"albedo",
			"uri":"albedo.png"
		}
	],
	"accessors":[
		{
			"bufferView":0,
			"componentType":5126,
			"count":27691,
			"max":[
				12.520315170288086,
				18.77880096435547,
				130.2689666748047
			],
			"min":[
				-19.99312400817871,
				-47.20871353149414,
				-25.837120056152344
			],
			"type":"VEC3"
		},
		{
			"bufferView":1,
			"componentType":5126,
			"count":27691,
			"type":"VEC3"
		},
		{
			"bufferView":2,
			"componentType":5126,
			"count":27691,
			"type":"VEC2"
		},
		{
			"bufferView":3,
			"componentType":5126,
			"count":27691,
			"type":"VEC4"
		},
		{
			"bufferView":4,
			"componentType":5123,
			"count":100623,
			"type":"SCALAR"
		}
	],
	"bufferViews":[
		{
			"buffer":0,
			"byteLength":332292,
			"byteOffset":0,
			"target":34962
		},
		{
			"buffer":0,
			"byteLength":332292,
			"byteOffset":332292,
			"target":34962
		},
		{
			"buffer":0,
			"byteLength":221528,
			"byteOffset":664584,
			"target":34962
		},
		{
			"buffer":0,
			"byteLength":443056,
			"byteOffset":886112,
			"target":34962
		},
		{
			"buffer":0,
			"byteLength":201246,
			"byteOffset":1329168,
			"target":34963
		}
	],
	"samplers":[
		{
			"magFilter":9729,
			"minFilter":9987
		}
	],
	"buffers":[
		{
			"byteLength":1530416,
			"uri":"cerberus.bin"
		}
	]
}
