{
	"asset":{
		"generator":"Khronos glTF Blender I/O v4.0.44",
		"version":"2.0"
	},
	"scene":0,
	"scenes":[
		{
			"name":"iron-sphere",
			"nodes":[
				0
			]
		}
	],
	"nodes":[
		{
			"mesh":0,
			"name":"iron-sphere"
		}
	],
	"materials":[
		{
			"doubleSided":true,
			"name":"iron-sphere-material",
			"pbrMetallicRoughness":{
				"baseColorTexture":{
					"index":0
				},
				"metallicRoughnessTexture":{
					"index":1
				}
			}
		}
	],
	"meshes":[
		{
			"name":"iron-sphere-mesh",
			"primitives":[
				{
					"attributes":{
						"POSITION":0,
						"NORMAL":1,
						"TEXCOORD_0":2,
						"TANGENT":3
					},
					"indices":4,
					"material":0
				}
			]
		}
	],
	"textures":[
		{
			"sampler":0,
			"source":0
		},
		{
			"sampler":0,
			"source":1
		}
	],
	"images":[
		{
			"mimeType":"image/png",
			"name":"rusted-iron-albedo",
			"uri":"rusted-iron-albedo.png"
		},
		{
			"mimeType":"image/png",
			"name":"rusted-iron-metallic-rusted-iron-roughness",
			"uri":"rusted-iron-metallic-rusted-iron-roughness.png"
		}
	],
	"accessors":[
		{
			"bufferView":0,
			"componentType":5126,
			"count":8383,
			"max":[
				0.4999997913837433,
				0.5,
				0.49999961256980896
			],
			"min":[
				-0.49999934434890747,
				-0.5,
				-0.49999916553497314
			],
			"type":"VEC3"
		},
		{
			"bufferView":1,
			"componentType":5126,
			"count":8383,
			"type":"VEC3"
		},
		{
			"bufferView":2,
			"componentType":5126,
			"count":8383,
			"type":"VEC2"
		},
		{
			"bufferView":3,
			"componentType":5126,
			"count":8383,
			"type":"VEC4"
		},
		{
			"bufferView":4,
			"componentType":5123,
			"count":48384,
			"type":"SCALAR"
		}
	],
	"bufferViews":[
		{
			"buffer":0,
			"byteLength":100596,
			"byteOffset":0,
			"target":34962
		},
		{
			"buffer":0,
			"byteLength":100596,
			"byteOffset":100596,
			"target":34962
		},
		{
			"buffer":0,
			"byteLength":67064,
			"byteOffset":201192,
			"target":34962
		},
		{
			"buffer":0,
			"byteLength":134128,
			"byteOffset":268256,
			"target":34962
		},
		{
			"buffer":0,
			"byteLength":96768,
			"byteOffset":402384,
			"target":34963
		}
	],
	"samplers":[
		{
			"magFilter":9729,
			"minFilter":9987
		}
	],
	"buffers":[
		{
			"byteLength":499152,
			"uri":"iron-sphere.bin"
		}
	]
}
