{
    "asset" : {
        "generator" : "Khronos glTF Blender I/O v1.6.16",
        "version" : "2.0"
    },
    "scene" : 0,
    "scenes" : [
        {
            "name" : "lit-icosphere",
            "nodes" : [
                0
            ]
        }
    ],
    "nodes" : [
        {
            "mesh" : 0,
            "name" : "Icosphere"
        }
    ],
    "materials" : [
        {
            "doubleSided" : true,
            "emissiveFactor" : [
                1,
                1,
                1
            ],
            "name" : "Material.001",
            "pbrMetallicRoughness" : {}
        }
    ],
    "meshes" : [
        {
            "name" : "Icosphere",
            "primitives" : [
                {
                    "attributes" : {
                        "POSITION" : 0,
                        "NORMAL" : 1,
                        "TANGENT" : 2,
                        "TEXCOORD_0" : 3
                    },
                    "indices" : 4,
                    "material" : 0
                }
            ]
        }
    ],
    "accessors" : [
        {
            "bufferView" : 0,
            "componentType" : 5126,
            "count" : 205,
            "max" : [
                0.5,
                0.5,
                0.4999999701976776
            ],
            "min" : [
                -0.4999999701976776,
                -0.5,
                -0.4999999701976776
            ],
            "type" : "VEC3"
        },
        {
            "bufferView" : 1,
            "componentType" : 5126,
            "count" : 205,
            "type" : "VEC3"
        },
        {
            "bufferView" : 2,
            "componentType" : 5126,
            "count" : 205,
            "type" : "VEC4"
        },
        {
            "bufferView" : 3,
            "componentType" : 5126,
            "count" : 205,
            "type" : "VEC2"
        },
        {
            "bufferView" : 4,
            "componentType" : 5123,
            "count" : 960,
            "type" : "SCALAR"
        }
    ],
    "bufferViews" : [
        {
            "buffer" : 0,
            "byteLength" : 2460,
            "byteOffset" : 0
        },
        {
            "buffer" : 0,
            "byteLength" : 2460,
            "byteOffset" : 2460
        },
        {
            "buffer" : 0,
            "byteLength" : 3280,
            "byteOffset" : 4920
        },
        {
            "buffer" : 0,
            "byteLength" : 1640,
            "byteOffset" : 8200
        },
        {
            "buffer" : 0,
            "byteLength" : 1920,
            "byteOffset" : 9840
        }
    ],
    "buffers" : [
        {
            "byteLength" : 11760,
            "uri" : "lit-icosphere.bin"
        }
    ]
}
